<svg xmlns="http://www.w3.org/2000/svg" xmlns:xlink="http://www.w3.org/1999/xlink" version="1.1" x="0px" y="0px" viewBox="0 0 1024 1280" style="enable-background:new 0 0 1024 1024;" xml:space="preserve"><g><g><g><path d="M770.8,512c0,13.9-1,27.9-2.8,41.7c0.6-4.4,1.2-8.9,1.8-13.3c-3.7,26.8-10.8,53-21.2,77.9     c1.7-4,3.4-8,5-11.9c-10.5,24.7-24.1,48-40.5,69.3c2.6-3.4,5.2-6.7,7.8-10.1c-16.1,20.7-34.7,39.3-55.5,55.5     c3.4-2.6,6.7-5.2,10.1-7.8c-21.3,16.4-44.5,30-69.3,40.5c4-1.7,8-3.4,11.9-5c-25,10.4-51.1,17.5-77.9,21.2     c4.4-0.6,8.9-1.2,13.3-1.8c-27.7,3.7-55.7,3.7-83.4,0c4.4,0.6,8.9,1.2,13.3,1.8c-26.8-3.7-53-10.8-77.9-21.2c4,1.7,8,3.4,11.9,5     c-24.7-10.5-48-24.1-69.3-40.5c3.4,2.6,6.7,5.2,10.1,7.8c-20.7-16.1-39.3-34.7-55.5-55.5c2.6,3.4,5.2,6.7,7.8,10.1     c-16.4-21.3-30-44.5-40.5-69.3c1.7,4,3.4,8,5,11.9c-10.4-25-17.5-51.1-21.2-77.9c0.6,4.4,1.2,8.9,1.8,13.3     c-3.7-27.7-3.7-55.7,0-83.4c-0.6,4.4-1.2,8.9-1.8,13.3c3.7-26.8,10.8-53,21.2-77.9c-1.7,4-3.4,8-5,11.9     c10.5-24.7,24.1-48,40.5-69.3c-2.6,3.4-5.2,6.7-7.8,10.1c16.1-20.7,34.7-39.3,55.5-55.5c-3.4,2.6-6.7,5.2-10.1,7.8     c21.3-16.4,44.5-30,69.3-40.5c-4,1.7-8,3.4-11.9,5c25-10.4,51.1-17.5,77.9-21.2c-4.4,0.6-8.9,1.2-13.3,1.8     c27.7-3.7,55.7-3.7,83.4,0c-4.4-0.6-8.9-1.2-13.3-1.8c26.8,3.7,53,10.8,77.9,21.2c-4-1.7-8-3.4-11.9-5     c24.7,10.5,48,24.1,69.3,40.5c-3.4-2.6-6.7-5.2-10.1-7.8c20.7,16.1,39.3,34.7,55.5,55.5c-2.6-3.4-5.2-6.7-7.8-10.1     c16.4,21.3,30,44.5,40.5,69.3c-1.7-4-3.4-8-5-11.9c10.4,25,17.5,51.1,21.2,77.9c-0.6-4.4-1.2-8.9-1.8-13.3     C769.9,484.1,770.8,498.1,770.8,512c0,12.8,5.6,26.3,14.6,35.4c8.7,8.7,22.9,15.2,35.4,14.6c12.9-0.6,26.3-4.8,35.4-14.6     c9-9.8,14.7-21.8,14.6-35.4c-0.2-72.3-22.1-145.7-64.3-204.7C795.2,291.5,783,276,769.4,262c-13.7-14.1-28.7-26.4-44.3-38.3     c-28.3-21.6-59.9-37.6-93.2-49.8c-34.4-12.6-71.4-19.1-107.9-20.4c-36.6-1.4-74.3,3.2-109.5,13.2     c-67.9,19.2-131.5,59.4-176.4,114c-12.4,15.1-24.2,30.9-34.3,47.7c-10.2,17-18.3,35-25.8,53.3c-13.8,33.7-21,69.7-23.8,105.9     c-5.7,72.3,12.8,147.4,50.3,209.4c36.4,60.1,91.2,110.9,155.5,139.9c18.2,8.2,36.7,15.6,55.9,21c19.7,5.5,39.8,8.6,60,11     c37.1,4.3,74.9,1.5,111.4-5.9c34.8-7.1,69-20.4,100-37.6c30.5-17,59-39,83.1-64.2c49.2-51.3,84.4-118.1,95.2-188.7     c3.1-20.1,5.3-40.1,5.4-60.4c0-12.8-5.6-26.3-14.6-35.4c-8.7-8.7-22.9-15.2-35.4-14.6c-12.9,0.6-26.3,4.8-35.4,14.6     C776.5,486.4,770.9,498.4,770.8,512z"/></g></g><g><g><path d="M562,203.2c0-35.5,0-70.9,0-106.4c0-5.1,0-10.2,0-15.2c0-12.8-5.6-26.3-14.6-35.4     c-8.7-8.7-22.9-15.2-35.4-14.6c-12.9,0.6-26.3,4.8-35.4,14.6c-9,9.8-14.6,21.8-14.6,35.4c0,35.5,0,70.9,0,106.4     c0,5.1,0,10.2,0,15.2c0,12.8,5.6,26.3,14.6,35.4c8.7,8.7,22.9,15.2,35.4,14.6c12.9-0.6,26.3-4.8,35.4-14.6     C556.3,228.7,562,216.7,562,203.2L562,203.2z"/></g></g><g><g><path d="M562,942.5c0-35.5,0-70.9,0-106.4c0-5.1,0-10.2,0-15.2c0-12.8-5.6-26.3-14.6-35.4     c-8.7-8.7-22.9-15.2-35.4-14.6c-12.9,0.6-26.3,4.8-35.4,14.6c-9,9.8-14.6,21.8-14.6,35.4c0,35.5,0,70.9,0,106.4     c0,5.1,0,10.2,0,15.2c0,12.8,5.6,26.3,14.6,35.4c8.7,8.7,22.9,15.2,35.4,14.6c12.9-0.6,26.3-4.8,35.4-14.6     C556.3,968.1,562,956,562,942.5L562,942.5z"/></g></g><g><g><path d="M203.2,462c-35.5,0-70.9,0-106.4,0c-5.1,0-10.2,0-15.2,0c-12.8,0-26.3,5.6-35.4,14.6     c-8.7,8.7-15.2,22.9-14.6,35.4c0.6,12.9,4.8,26.3,14.6,35.4c9.8,9,21.8,14.6,35.4,14.6c35.5,0,70.9,0,106.4,0     c5.1,0,10.2,0,15.2,0c12.8,0,26.3-5.6,35.4-14.6c8.7-8.7,15.2-22.9,14.6-35.4c-0.6-12.9-4.8-26.3-14.6-35.4     C228.7,467.7,216.7,462,203.2,462L203.2,462z"/></g></g><g><g><path d="M942.5,462c-35.5,0-70.9,0-106.4,0c-5.1,0-10.2,0-15.2,0c-12.8,0-26.3,5.6-35.4,14.6     c-8.7,8.7-15.2,22.9-14.6,35.4c0.6,12.9,4.8,26.3,14.6,35.4c9.8,9,21.8,14.6,35.4,14.6c35.5,0,70.9,0,106.4,0     c5.1,0,10.2,0,15.2,0c12.8,0,26.3-5.6,35.4-14.6c8.7-8.7,15.2-22.9,14.6-35.4c-0.6-12.9-4.8-26.3-14.6-35.4     C968.1,467.7,956,462,942.5,462L942.5,462z"/></g></g><g><g><path d="M554.8,512c0,4.2-0.3,8.3-0.8,12.5c0.6-4.4,1.2-8.9,1.8-13.3c-1.1,8-3.2,15.8-6.3,23.3     c1.7-4,3.4-8,5-11.9c-3.1,7.3-7.1,14.1-11.8,20.5c2.6-3.4,5.2-6.7,7.8-10.1c-5.1,6.6-10.9,12.4-17.5,17.5     c3.4-2.6,6.7-5.2,10.1-7.8c-6.3,4.8-13.2,8.7-20.5,11.8c4-1.7,8-3.4,11.9-5c-7.5,3.1-15.3,5.2-23.3,6.3c4.4-0.6,8.9-1.2,13.3-1.8     c-8.3,1.1-16.6,1.1-25,0c4.4,0.6,8.9,1.2,13.3,1.8c-8-1.1-15.8-3.2-23.3-6.3c4,1.7,8,3.4,11.9,5c-7.3-3.1-14.1-7.1-20.5-11.8     c3.4,2.6,6.7,5.2,10.1,7.8c-6.6-5.1-12.4-10.9-17.5-17.5c2.6,3.4,5.2,6.7,7.8,10.1c-4.8-6.3-8.7-13.2-11.8-20.5     c1.7,4,3.4,8,5,11.9c-3.1-7.5-5.2-15.3-6.3-23.3c0.6,4.4,1.2,8.9,1.8,13.3c-1.1-8.3-1.1-16.6,0-25c-0.6,4.4-1.2,8.9-1.8,13.3     c1.1-8,3.2-15.8,6.3-23.3c-1.7,4-3.4,8-5,11.9c3.1-7.3,7.1-14.1,11.8-20.5c-2.6,3.4-5.2,6.7-7.8,10.1     c5.1-6.6,10.9-12.4,17.5-17.5c-3.4,2.6-6.7,5.2-10.1,7.8c6.3-4.8,13.2-8.7,20.5-11.8c-4,1.7-8,3.4-11.9,5     c7.5-3.1,15.3-5.2,23.3-6.3c-4.4,0.6-8.9,1.2-13.3,1.8c8.3-1.1,16.6-1.1,25,0c-4.4-0.6-8.9-1.2-13.3-1.8c8,1.1,15.8,3.2,23.3,6.3     c-4-1.7-8-3.4-11.9-5c7.3,3.1,14.1,7.1,20.5,11.8c-3.4-2.6-6.7-5.2-10.1-7.8c6.6,5.1,12.4,10.9,17.5,17.5     c-2.6-3.4-5.2-6.7-7.8-10.1c4.8,6.3,8.7,13.2,11.8,20.5c-1.7-4-3.4-8-5-11.9c3.1,7.5,5.2,15.3,6.3,23.3     c-0.6-4.4-1.2-8.9-1.8-13.3C554.5,503.7,554.8,507.8,554.8,512c0.1,12.9,5.5,26.2,14.6,35.4c8.7,8.7,22.9,15.2,35.4,14.6     c12.9-0.6,26.3-4.8,35.4-14.6c8.9-9.7,14.7-21.8,14.6-35.4c-0.2-27.6-8-56.9-24.3-79.4c-5-6.9-10.2-14-16.2-20.2     c-6.3-6.5-13.6-12-20.8-17.4c-10.9-8.2-23.3-13.6-36.1-18.3c-26.2-9.7-57.7-9.8-84.5-2.1c-25.8,7.4-51.5,22.7-68.5,43.7     c-5.3,6.5-10.6,13.1-15,20.3c-4.6,7.6-8,16-11.3,24.3c-5.4,13.4-7.6,27.7-8.7,42.1c-2,27.2,5.7,56.5,19.7,79.8     c13.7,22.9,34.9,43.8,59.4,54.9c7.9,3.6,16,7.2,24.4,9.6c9.1,2.6,18.6,3.7,27.9,4.7c14.1,1.6,28.4-0.1,42.3-2.8     c14.5-2.8,29-8.9,41.7-16.4c12.4-7.4,24.6-17,33.9-28.2c6-7.3,12.1-14.8,16.8-23c4.6-7.9,8.1-16.6,11.3-25.1     c5.6-14.6,7.8-31.1,8-46.7c0.1-12.8-5.6-26.4-14.6-35.4c-8.7-8.7-22.9-15.2-35.4-14.6C577.6,463.2,555,484,554.8,512z"/></g></g></g><text x="0" y="1039" fill="#000000" font-size="5px" font-weight="bold" font-family="'Helvetica Neue', Helvetica, Arial-Unicode, Arial, Sans-serif">Created by shashank singh</text><text x="0" y="1044" fill="#000000" font-size="5px" font-weight="bold" font-family="'Helvetica Neue', Helvetica, Arial-Unicode, Arial, Sans-serif">from the Noun Project</text></svg>